# xmcd
#
# Track frame offsets: 
#        150
#        24960
#        48781
#        68720
#        87374
#        109278
#        133583
#        155436
#        174753
#        202915
#        227559
#        245271
#
# Disc length: 3517 seconds
#
# Revision: 2
# Processed by: cddbd v1.5.2PL0 Copyright (c) Steve Scherf et al.
# Submitted via: ExactAudioCopy v0.99pb5
#
DISCID=8a0dbb0c
DTITLE=Blues Company - The Quiet Side Of Blues Company
DYEAR=2006
DGENRE=Blues
TTITLE0=The World Is Mad
TTITLE1=Christmas Eve In Germany
TTITLE2=Members Only
TTITLE3=(They Called Him) Muddy Waters
TTITLE4=Chanel No.5
TTITLE5=Crippled Mind
TTITLE6=Pension Blues
TTITLE7=Out Of My Mind
TTITLE8=Cold Rain
TTITLE9=Place To Rest
TTITLE10=Give Me Back My Life
TTITLE11=My Funny Valentine
EXTD=
EXTT0=
EXTT1=
EXTT2=
EXTT3=
EXTT4=
EXTT5=
EXTT6=
EXTT7=
EXTT8=
EXTT9=
EXTT10=
EXTT11=
PLAYORDER=
